HIERARCHY
ROOT Hips
{
	OFFSET 0.000000 0.000000 0.000000
	CHANNELS 6 Xposition Yposition Zposition Yrotation Xrotation Zrotation
	JOINT Chest
	{
		OFFSET 0.000000 -0.009281 11.569106
		CHANNELS 3 Yrotation Xrotation Zrotation
		JOINT Chest2
		{
			OFFSET -0.000000 0.016865 9.269641
			CHANNELS 3 Yrotation Xrotation Zrotation
			JOINT Chest3
			{
				OFFSET -0.000000 0.000001 8.374491
				CHANNELS 3 Yrotation Xrotation Zrotation
				JOINT Chest4
				{
					OFFSET -0.000000 0.000001 8.374493
					CHANNELS 3 Yrotation Xrotation Zrotation
					JOINT Neck
					{
						OFFSET -0.000000 0.000002 12.152554
						CHANNELS 3 Yrotation Xrotation Zrotation
						JOINT Head
						{
							OFFSET -0.000000 0.040101 7.802319
							CHANNELS 3 Yrotation Xrotation Zrotation
							End Site
							{
								OFFSET -0.000000 0.020947 14.853096
							}
						}
					}
					JOINT RightCollar
					{
						OFFSET 2.894404 0.000001 6.791374
						CHANNELS 3 Yrotation Xrotation Zrotation
						JOINT RightShoulder
						{
							OFFSET 13.574684 0.000001 0.000000
							CHANNELS 3 Yrotation Xrotation Zrotation
							JOINT RightElbow
							{
								OFFSET 23.923903 0.000002 0.000000
								CHANNELS 3 Yrotation Xrotation Zrotation
								JOINT RightWrist
								{
									OFFSET 19.846718 0.012767 0.000000
									CHANNELS 3 Yrotation Xrotation Zrotation
									End Site
									{
										OFFSET 14.973145 0.000001 0.000000
									}
								}
							}
						}
					}
					JOINT LeftCollar
					{
						OFFSET -2.894404 0.000001 6.791374
						CHANNELS 3 Yrotation Xrotation Zrotation
						JOINT LeftShoulder
						{
							OFFSET -13.574684 -0.000001 0.000000
							CHANNELS 3 Yrotation Xrotation Zrotation
							JOINT LeftElbow
							{
								OFFSET -23.923903 -0.000002 0.000000
								CHANNELS 3 Yrotation Xrotation Zrotation
								JOINT LeftWrist
								{
									OFFSET -19.846718 0.012763 0.000000
									CHANNELS 3 Yrotation Xrotation Zrotation
									End Site
									{
										OFFSET -14.973145 -0.000001 0.000000
									}
								}
							}
						}
					}
				}
			}
		}
	}
	JOINT RightHip
	{
		OFFSET 9.469263 0.004643 0.045487
		CHANNELS 3 Yrotation Xrotation Zrotation
		JOINT RightKnee
		{
			OFFSET 0.000000 0.002661 -40.478676
			CHANNELS 3 Yrotation Xrotation Zrotation
			JOINT RightAnkle
			{
				OFFSET 0.000000 0.049106 -35.224068
				CHANNELS 3 Yrotation Xrotation Zrotation
				JOINT RightToe
				{
					OFFSET -0.000001 12.539529 -6.151390
					CHANNELS 3 Yrotation Xrotation Zrotation
					End Site
					{
						OFFSET -0.000001 5.044994 -1.291870
					}
				}
			}
		}
	}
	JOINT LeftHip
	{
		OFFSET -9.469263 0.004641 0.045487
		CHANNELS 3 Yrotation Xrotation Zrotation
		JOINT LeftKnee
		{
			OFFSET 0.000000 0.002661 -40.478676
			CHANNELS 3 Yrotation Xrotation Zrotation
			JOINT LeftAnkle
			{
				OFFSET 0.000000 0.049106 -35.224068
				CHANNELS 3 Yrotation Xrotation Zrotation
				JOINT LeftToe
				{
					OFFSET -0.000001 12.539529 -6.151390
					CHANNELS 3 Yrotation Xrotation Zrotation
					End Site
					{
						OFFSET -0.000001 5.044994 -1.291870
					}
				}
			}
		}
	}
}
MOTION
Frames: 13
Frame Time: 0.016667
11.076926 -0.106686 82.951035 -1.698542 0.488403 -108.655530 -1.750326 -4.389493 0.461332 -0.677220 -1.751429 0.489164 -0.677219 -1.751429 0.489166 -0.506473 -1.314117 0.364903 0.077493 -17.842204 -0.577850 -0.051876 3.049040 -1.038736 9.847305 9.955753 -1.518976 41.081488 -16.886297 -17.695227 -40.160228 -63.912252 105.964654 -61.580514 37.620887 35.062909 -7.853937 6.841041 -5.618421 -39.745984 -19.593811 21.332226 16.249435 -64.471583 -83.328335 40.931961 32.272565 -66.545748 3.925554 -2.201164 -14.925758 2.564491 -1.416208 -2.438843 -1.687967 4.150825 5.006973 -0.485760 -0.305540 -0.041631 -2.195673 0.876416 7.459228 -1.387154 -8.301414 6.778734 4.211143 4.936024 9.637851 -0.661081 0.039161 -0.102363 
10.836868 -0.138789 82.926041 -1.737577 0.373673 -108.189677 -1.732898 -4.513471 0.308726 -0.651871 -1.757738 0.483264 -0.651871 -1.757739 0.483266 -0.487474 -1.318823 0.360546 0.092787 -17.923856 -0.588046 -0.026510 2.897472 -1.052014 9.844491 9.940829 -1.535523 41.025002 -16.966613 -17.628460 -40.065114 -63.918420 105.971546 -61.671445 37.610887 35.009265 -7.856688 6.811857 -5.619622 -39.800438 -19.603452 21.325502 16.381515 -64.366815 -83.314142 40.765803 32.072874 -66.688929 4.057293 -2.088271 -15.204539 2.680041 -1.556382 -2.624222 -1.768290 4.220998 4.933709 -0.457117 -0.332089 -0.032523 -1.937588 1.766067 6.532475 -1.498508 -9.858362 7.212052 4.415609 5.306263 9.686181 -0.788179 0.108339 -0.122008 
10.553917 -0.165992 82.904846 -1.771281 0.248680 -107.686033 -1.710757 -4.647714 0.149378 -0.618816 -1.766946 0.481863 -0.618816 -1.766947 0.481860 -0.462682 -1.325701 0.359579 0.112907 -18.005431 -0.606337 0.005028 2.746034 -1.078606 9.829882 9.934922 -1.566426 40.956905 -17.001970 -17.577140 -40.055972 -63.919656 106.068357 -61.757853 37.621085 34.968933 -7.867966 6.816582 -5.632393 -39.824098 -19.606721 21.302773 16.570848 -64.306238 -83.385005 40.646060 31.860920 -66.768425 4.191198 -1.959381 -15.516127 2.807707 -1.691628 -2.747681 -1.864837 4.276438 4.887925 -0.427499 -0.367898 -0.019275 -1.688322 2.791364 5.498597 -1.654473 -11.570197 7.809882 4.621361 5.537717 9.793766 -0.911566 0.282557 -0.139572 
10.261670 -0.187282 82.895027 -1.887071 0.123328 -107.112454 -1.708969 -4.856938 -0.054604 -0.580967 -1.777876 0.482832 -0.580968 -1.777877 0.482837 -0.434285 -1.333868 0.360407 0.131863 -18.094839 -0.623265 0.034950 2.580063 -1.103061 9.820145 9.959788 -1.592982 40.865643 -17.049351 -17.562337 -40.005425 -63.925489 106.143687 -61.823061 37.630415 34.958397 -7.875263 6.814001 -5.638479 -39.852812 -19.605908 21.261404 16.741967 -64.289388 -83.425385 40.553924 31.696565 -66.847253 4.307862 -1.893015 -15.859201 2.947128 -1.819110 -2.890298 -2.000559 4.306086 4.774067 -0.387003 -0.388575 0.012051 -1.488948 3.905097 4.435259 -1.826615 -13.516961 8.527210 4.785077 5.607120 9.832691 -1.029747 0.591904 -0.152436 
9.956213 -0.219449 82.901299 -2.028709 0.004085 -106.515933 -1.711841 -5.091547 -0.262069 -0.541806 -1.792095 0.485586 -0.541806 -1.792096 0.485585 -0.404898 -1.344505 0.362569 0.151458 -18.187906 -0.637866 0.066852 2.407302 -1.123041 9.808974 9.996060 -1.609340 40.789323 -17.093173 -17.566953 -40.000583 -63.916664 106.241878 -61.909743 37.653204 34.944641 -7.894569 6.836481 -5.635344 -39.906562 -19.652112 21.226590 16.873648 -64.255531 -83.419156 40.492821 31.556280 -66.929789 4.418125 -1.851295 -16.189717 3.083454 -1.922891 -3.075867 -2.158220 4.287238 4.686043 -0.336507 -0.377631 0.041225 -1.329241 5.144362 3.486445 -1.986042 -15.682440 9.280310 4.970903 5.415529 9.758582 -1.216752 1.080611 -0.159964 
9.646093 -0.255981 82.924614 -2.204539 -0.096779 -105.893498 -1.728161 -5.345468 -0.481661 -0.504705 -1.810514 0.489828 -0.504705 -1.810512 0.489830 -0.377046 -1.358291 0.365846 0.168688 -18.288392 -0.646232 0.096534 2.220790 -1.132326 9.793969 10.023228 -1.624363 40.723907 -17.137501 -17.572021 -40.023939 -63.891126 106.347036 -61.977560 37.675822 34.935844 -7.917548 6.851930 -5.632083 -39.976937 -19.700815 21.206397 17.022167 -64.194120 -83.436368 40.455395 31.430464 -67.007400 4.514246 -1.830444 -16.529111 3.208795 -2.014041 -3.342776 -2.317883 4.228588 4.615401 -0.295150 -0.334790 0.030131 -1.238178 6.481229 2.691898 -2.059592 -17.982068 9.986677 5.117935 4.866688 9.630215 -1.434874 1.745858 -0.161663 
9.314472 -0.322518 82.962685 -2.423461 -0.187163 -105.237096 -1.744836 -5.625006 -0.733211 -0.474312 -1.833607 0.494741 -0.474312 -1.833608 0.494741 -0.354220 -1.375592 0.369600 0.182485 -18.399083 -0.642481 0.123959 2.015349 -1.120489 9.774741 10.040574 -1.637998 40.675641 -17.193828 -17.577304 -40.076757 -63.850022 106.461708 -62.061271 37.692010 34.923707 -7.935707 6.841540 -5.616101 -40.032121 -19.711229 21.190310 17.130345 -64.146323 -83.441703 40.446324 31.319095 -67.094949 4.610211 -1.851978 -16.890742 3.336669 -2.076125 -3.644407 -2.522614 4.111246 4.592285 -0.244565 -0.251444 0.011153 -1.219297 7.848290 2.004648 -1.988546 -20.308002 10.695209 5.221445 3.942979 9.257872 -2.674828 3.756517 -0.204335 
8.703200 -0.336029 82.998055 -1.355284 0.139908 -103.001500 -1.698270 -4.603040 -2.613941 -0.451777 -1.862586 0.506115 -0.451777 -1.862587 0.506113 -0.337261 -1.397318 0.378172 0.197208 -18.520753 -0.635072 0.154314 1.789539 -1.101659 9.766272 10.068982 -1.639946 40.643802 -17.232002 -17.596736 -40.156513 -63.802436 106.588367 -62.136594 37.693406 34.922030 -7.944490 6.848123 -5.605207 -40.081251 -19.695226 21.201141 17.263242 -64.111263 -83.502409 40.464800 31.228031 -67.141572 4.672609 -0.372585 -18.717001 3.426296 -2.126896 -3.914122 -2.772876 3.961594 4.532102 -0.173872 -0.166519 0.004261 -1.496083 10.626747 -0.225735 -1.857657 -21.897974 11.435906 5.238215 2.123858 8.165949 -3.656003 5.841466 0.142700 
8.217334 -0.421142 83.035660 -0.885215 0.215640 -101.616262 -1.655130 -4.200265 -3.628323 -0.434668 -1.892060 0.522902 -0.434668 -1.892059 0.522904 -0.324352 -1.419421 0.390797 0.207866 -18.661651 -0.620958 0.179469 1.528016 -1.071856 9.741619 10.068022 -1.652956 40.649130 -17.229197 -17.591885 -40.306312 -63.757043 106.740605 -62.235741 37.691743 34.915756 -7.951682 6.862869 -5.590620 -40.117130 -19.663437 21.230690 17.382480 -64.068855 -83.573136 40.491134 31.122747 -67.148642 4.784259 0.396358 -19.734389 3.484591 -2.173874 -4.104446 -2.981365 3.778079 4.550918 -0.152401 -0.059158 -0.129102 -1.601861 12.846960 -1.546576 -1.893290 -23.999936 12.246451 5.402548 0.437245 7.196976 -4.680554 8.160058 0.328268 
7.827430 -0.505147 83.017273 -0.656764 0.294284 -100.535282 -1.690170 -4.037748 -4.352062 -0.423655 -1.925927 0.546076 -0.423655 -1.925926 0.546074 -0.315990 -1.444825 0.408181 0.211514 -18.818496 -0.597000 0.194966 1.236856 -1.026321 9.725068 10.081013 -1.653273 40.659597 -17.226567 -17.577065 -40.447810 -63.712503 106.863630 -62.340250 37.711510 34.901406 -7.948312 6.889784 -5.563868 -40.146619 -19.596316 21.252470 17.435962 -64.015183 -83.597014 40.502936 30.985317 -67.144311 4.814500 0.874950 -20.518059 3.536003 -2.201283 -4.233483 -3.186470 3.546793 4.514456 -0.133881 0.095066 -0.242472 -1.753790 14.715969 -2.526498 -2.090488 -25.911161 13.139233 5.671228 -1.152262 6.478854 -5.575461 10.274340 0.403387 
7.708761 -0.628016 82.991447 -0.954025 0.156795 -100.511616 -1.677799 -4.399977 -4.022155 -0.418313 -1.955644 0.574271 -0.418313 -1.955643 0.574268 -0.311866 -1.467128 0.429322 0.204840 -19.007795 -0.559152 0.196087 0.885396 -0.958669 9.720189 10.117041 -1.658069 40.661069 -17.274764 -17.568811 -40.503831 -63.679049 106.909010 -62.442204 37.726936 34.880967 -7.942079 6.918209 -5.534244 -40.186487 -19.491700 21.291069 17.513923 -63.934211 -83.636534 40.480240 30.837652 -67.164665 4.950272 0.617451 -20.409604 3.584461 -2.212731 -4.375035 -3.281742 3.398602 4.624742 -0.172977 0.221842 -0.406568 -1.407127 16.016917 -2.224259 -2.518503 -27.497145 14.109389 6.063544 -2.510079 6.167532 -6.350768 11.840578 0.245987 
8.061391 -0.811177 82.954674 -1.741260 -0.303160 -101.905384 -1.554394 -5.265237 -2.277009 -0.418827 -1.980441 0.603989 -0.418827 -1.980442 0.603987 -0.312131 -1.485747 0.451590 0.183606 -19.232568 -0.502310 0.176610 0.468030 -0.860921 9.715630 10.150698 -1.666980 40.670638 -17.329976 -17.552761 -40.515275 -63.674029 106.903737 -62.560155 37.749622 34.844009 -7.939318 6.954625 -5.498080 -40.242139 -19.345346 21.344999 17.690716 -63.833514 -83.764149 40.421322 30.699832 -67.188748 5.299864 -0.508578 -19.074691 3.605091 -2.161315 -4.444989 -3.265499 3.327380 4.802170 -0.221968 0.378259 -0.531145 -0.213024 16.754830 -0.111160 -3.074731 -28.616001 15.086220 6.615697 -3.582389 6.165308 -7.069475 12.520744 -0.131346 
8.595609 -0.981817 82.910072 -2.197183 -0.747207 -103.533490 -1.419395 -5.792918 -0.328196 -0.427440 -1.997890 0.630622 -0.427440 -1.997891 0.630620 -0.318486 -1.498862 0.471519 0.145447 -19.507054 -0.420078 0.134120 -0.041687 -0.722107 9.716125 10.157567 -1.666035 40.675703 -17.357958 -17.531455 -40.502677 -63.703200 106.864914 -62.644542 37.765929 34.818464 -7.944067 6.984447 -5.442922 -40.309079 -19.186852 21.398605 17.857542 -63.744339 -83.875017 40.326902 30.594238 -67.241279 5.645054 -1.478936 -17.581890 3.620693 -2.056568 -4.379506 -3.237879 3.428209 4.812043 -0.222001 0.423340 -0.536422 1.290274 17.477419 2.600545 -3.697990 -29.245791 16.039258 7.215293 -4.337065 6.236637 -7.614083 12.601955 -0.510098 
